<?xml version="1.0" encoding="utf-8"?>
<!-- Generator: Adobe Illustrator 19.2.1, SVG Export Plug-In . SVG Version: 6.00 Build 0)  -->
<svg version="1.1" id="logo" xmlns="http://www.w3.org/2000/svg" xmlns:xlink="http://www.w3.org/1999/xlink" x="0px" y="0px"
	 viewBox="0 0 274 106" style="enable-background:new 0 0 274 106;" xml:space="preserve">
<style type="text/css">
	.st0{fill:#B74B46;}
	.st1{fill:#55565A;}
</style>
<g id="full_x5F_group">
	<path class="st0" d="M72.7742691,59.8744278c1.2696075,0,2.3502197,1.0378342,2.3502197,2.3258018v17.3512077
		c0,1.2567673-1.0806122,2.3262939-2.3502197,2.3262939h-5.7160645c-1.3024979,0-2.3497238-1.0695267-2.3497238-2.3262939
		V62.2002296c0-1.2879677,1.047226-2.3258018,2.3497238-2.3258018H72.7742691z M71.2821732,63.6473656h-2.7632828v14.4273033
		h2.7632828V63.6473656z"/>
	<polygon class="st0" points="256.6197205,59.7427368 260.4276428,59.7427368 260.4276428,81.9136505 256.5878296,81.9136505 
		256.5878296,71.0186615 255.0516357,76.6568756 251.3069916,76.6568756 249.8033142,71.0186615 249.8033142,81.9136505 
		245.9638824,81.9136505 245.9638824,59.7427368 249.7718201,59.7427368 253.195816,70.4474411 	"/>
	<polygon class="st0" points="268.5118713,59.7427368 272.4151001,59.7427368 266.307251,81.9136505 262.2661438,81.9136505 
		264.8640137,72.5701141 261.183136,59.7427368 265.0873718,59.7427368 266.8161011,66.331543 	"/>
	<path class="st1" d="M151.2258759,84.4383621h-5.7271576c-1.3059692,0-2.3559723,1.0396957-2.3559723,2.3319778v6.7872086
		h-1.4640503v-9.1191864h-3.818634v22.0502014h3.818634v-9.1499176h1.4640503v6.8183289
		c0,1.2596893,1.0500031,2.3315887,2.3559723,2.3315887h5.7271576c1.272583,0,2.3540802-1.0718994,2.3540802-2.3315887V86.77034
		C153.5799561,85.4780579,152.4984589,84.4383621,151.2258759,84.4383621 M149.7299194,102.6758728h-2.7680359V88.2188492h2.7680359
		V102.6758728z"/>
	<path class="st0" d="M28.9784374,17.4759941c-0.8971577,2.5184326,0.0934105,5.3152599,2.8246994,6.3823357
		c2.4589825,0.9587383,5.270113-0.0302238,6.4096622-2.7341423c1.0674324-2.5303841-0.0053482-5.3180857-2.7656631-6.4019423
		C32.7090111,13.6480064,30.1547356,14.9230213,28.9784374,17.4759941"/>
	<path class="st1" d="M48.4173203,40.8913002c0.0377426-1.7297516,0.0895462-3.4613686,0.0808296-5.1897697
		c-0.0212975-3.8317947,1.1444016-7.3952217,2.3462563-10.9769211c1.5980835-4.7608986,0.9891815-9.411027-1.3861961-13.769413
		c-2.4584885-4.5151-6.279007-7.4533558-11.3063316-8.8083267c-3.9003563-1.051767-7.7495022-0.819393-11.4607601,0.686131
		c-4.7414474,1.9233656-8.0943165,5.2687459-10.1010075,9.977459c-0.7100382,1.6659689-1.5651951,3.3291893-2.6616535,4.7622929
		c-1.704072,2.2309074-3.6135874,4.3196239-5.5415277,6.369381c-3.0766015,3.2726669-5.4273157,6.9352837-6.572114,11.2879963
		c-1.5240862,5.7876625-0.9122131,11.3573761,1.8533505,16.6769562c2.6708655,5.1327362,6.7289209,8.7709389,12.5392885,11.1211739
		c0.6621933,0.2117462,1.7195244,0.6324539,2.8174686,0.887867c5.5578728,1.296627,10.9150562,0.7416954,16.0657063-1.7523041
		c4.851799-2.3482704,8.4295273-5.9587021,10.816494-10.7066689C47.5704842,48.1467094,48.34095,44.5884819,48.4173203,40.8913002
		 M47.2787628,25.4989796c-0.674675,0.0646496-1.3426132,0.0344448-2.0033226-0.1768303
		c-0.0459633,0.0100079-0.1030197,0.0272789-0.1596794,0.0339527c-0.0865746,0.0110893-0.1474953,0.0628033-0.190979,0.1260777
		c-0.0808334,0.114048-0.1484871,0.2372036-0.2196121,0.3574123c-0.0875626,0.1480808-0.1669083,0.300478-0.2612114,0.4446316
		c-0.0609207,0.0925369-0.0798378,0.1844864-0.042099,0.289978c0.0194168,0.0535793,0.0328865,0.1087284,0.0474472,0.1552219
		c0.4947891,0.4666328,0.8295021,1.026371,1.0887337,1.6358433c-0.1261978,0.1466274-0.2399139,0.2817535-0.3550186,0.414917
		c-0.1494789,0.1748486-0.3008347,0.3473835-0.4488258,0.5222321c-0.0531921,0.0628033-0.1137161,0.0915756-0.1944504,0.0666504
		c-0.1301575-0.0387611-0.2650757-0.068985-0.389389-0.1231537c-0.3008347-0.128355-0.6209869-0.2117672-0.9006233-0.3895798
		c-0.1271896-0.0809574-0.2606201-0.1514168-0.3902855-0.2275658c-0.0387306-0.0201359-0.0845947-0.0302238-0.131546-0.0354252
		c-0.118969-0.0157986-0.2258492-0.0024529-0.3187637,0.0914574c-0.0981674,0.1011734-0.2094078,0.1892948-0.3177757,0.2808514
		c-0.1073761,0.0900841-0.2201042,0.1782055-0.3274803,0.269762c-0.1866226,0.1614246-0.2171326,0.3847713-0.0855865,0.5883923
		c0.0222893,0.0354252,0.0425949,0.0732841,0.0565643,0.1130466c0.0464554,0.1216831,0.0875626,0.2448177,0.1355095,0.3666172
		c0.1121292,0.2883873,0.1624527,0.5922203,0.2142563,0.8954449c0.0193176,0.1231537,0.0333824,0.2458172,0.0507202,0.37327
		c-0.3965263,0.2439728-0.781559,0.4820385-1.1520309,0.7105846c-0.0624046-0.0325775-0.1073761-0.0526962-0.1456146-0.0776405
		c-0.2902336-0.1964378-0.5707626-0.4067326-0.831974-0.6386166c-0.100544-0.0900841-0.1798897-0.2027378-0.2766685-0.2971401
		c-0.1179733-0.1154995-0.1783981-0.2817326-0.3641319-0.3359013c-0.1127243-0.0339527-0.2172318-0.0613327-0.3284721-0.0138569
		c-0.2592316,0.1073761-0.5189552,0.2165947-0.7771988,0.3267765c-0.1784973,0.0756779-0.3110352,0.3085423-0.2714157,0.4963665
		c0.0638924,0.2984924,0.0667648,0.5989914,0.041111,0.8989754c-0.0260544,0.3138237-0.0512123,0.629097-0.1402664,0.9444122
		c-0.4367409,0.1072578-0.87883,0.2165565-1.3296356,0.3276596c-0.1557198-0.2117653-0.3134155-0.4072418-0.4536819-0.6156731
		c-0.1276817-0.190197-0.2412987-0.3890877-0.3511543-0.5912399c-0.0570564-0.1049995-0.1034164-0.2204018-0.1354103-0.3354111
		c-0.0619125-0.2252312-0.2427864-0.3666153-0.4734917-0.3473816c-0.293602,0.0249252-0.5867119,0.0550499-0.8808098,0.082428
		c-0.1721611,0.0171547-0.3438263,0.1839752-0.3612633,0.3540573c-0.0203056,0.2084312-0.0744896,0.4092064-0.1479874,0.6028175
		c-0.1315498,0.3425751-0.2665634,0.6827965-0.4411011,1.0061378c-0.0531921,0.0987167-0.0846939,0.123642-0.197319,0.1179504
		c-0.2835007-0.0124626-0.5654182-0.0244331-0.8474312-0.0417061c-0.1310539-0.0076523-0.2597275-0.0273781-0.3956337-0.0417023
		c-0.2626972-0.612339-0.4397125-1.2410622-0.4305-1.9027596c-0.0318966-0.0560532-0.0595322-0.1063728-0.0875664-0.1575966
		c-0.0478439-0.0847874-0.1209469-0.135128-0.2181225-0.1547546c-0.1484852-0.0302429-0.2969723-0.0604477-0.4434757-0.0953827
		c-0.1630478-0.0373878-0.3246098-0.0872383-0.4875584-0.1193466c-0.0687447-0.0129337-0.1456127-0.0114613-0.2103958,0.0407429
		c-0.0518074,0.0436497-0.1132221,0.0762482-0.1470985,0.0982304c-0.316288,0.6234245-0.7506523,1.1174164-1.2647572,1.5505676
		c-0.413065-0.1653519-0.8261318-0.3306046-1.2406845-0.4954643c-0.0367489-0.3066597-0.0290241-0.6133194-0.0101032-0.9218426
		c0.0212975-0.3426723,0.0753822-0.6794777,0.1755276-1.008215c0.0401192-0.128828-0.0290222-0.3262672-0.1456127-0.4010429
		c-0.1189671-0.0766392-0.2408066-0.1456261-0.3622494-0.2165737c-0.149477-0.0867481-0.3046989-0.1652527-0.4488258-0.256319
		c-0.095789-0.0623131-0.1867218-0.0799751-0.2931099-0.0435886c-0.054184,0.0186443-0.1097546,0.0325985-0.1451168,0.0435886
		c-0.4850807,0.4901638-1.0461388,0.8275394-1.6662331,1.0805206c-0.3477879-0.2951775-0.687355-0.5802479-1.016222-0.8596268
		c0.0498238-0.4034157,0.4590282-1.4465485,0.7782879-1.7963848c0.0013866-0.0249252,0-0.0512238,0.005249-0.0776215
		c0.0353642-0.1537704,0.0024776-0.2860508-0.1087627-0.4039059c-0.1828594-0.1949863-0.3613605-0.3942909-0.5335197-0.598011
		c-0.0730057-0.0871601-0.1625519-0.1384621-0.2674541-0.1537704c-0.1073761-0.0158195-0.2210941-0.0263977-0.3125229,0.0666103
		c-0.023674,0.0249462-0.0662689,0.0301456-0.0991554,0.0459461c-0.2679482,0.1308079-0.5537281,0.2065659-0.8405952,0.2750607
		c-0.274189,0.0651588-0.5552139,0.124136-0.8464394,0.1231537c-0.2345657-0.3679905-0.4686375-0.7379436-0.704689-1.1097622
		c0.0188198-0.0459251,0.0290222-0.09342,0.054678-0.1312199c0.0807323-0.1222515,0.161562-0.2434444,0.2515049-0.3574715
		c0.273695-0.3440475,0.5479832-0.6871128,0.920435-0.9377384c0.1493778-0.1801682,0.2451649-0.2779083,0.1364021-0.5308895
		c-0.1112404-0.2549438-0.2186184-0.5136166-0.3323364-0.76758c-0.0198116-0.0460415-0.0629005-0.0809574-0.0919247-0.1221714
		c-0.0748863-0.1030388-0.2060375-0.0915565-0.3003387-0.1466274c-0.5122223,0.0929489-1.0529728,0.1063938-1.9651852-0.0853748
		c-0.1068821-0.432148-0.2171326-0.8701057-0.3255005-1.3089485c0.1006413-0.0800743,0.19207-0.1600704,0.2902355-0.2290363
		c0.1590843-0.1116734,0.3192596-0.221384,0.4827023-0.3224583c0.1392746-0.0853748,0.2907314-0.1500435,0.4280243-0.2362995
		c0.1050014-0.0641785,0.2123775-0.1135368,0.3323364-0.1399345c0.220005-0.0459251,0.4013767-0.2538853,0.3680935-0.5088081
		c-0.0328865-0.2539635-0.0435848-0.5107727-0.0648823-0.7666969c-0.0198116-0.2529812-0.1600742-0.3962536-0.4115791-0.4374676
		c-0.2065334-0.0325794-0.412077-0.079977-0.6080112-0.1571274c-0.3332253-0.1322613-0.6694241-0.2572803-0.9875946-0.4259663
		c-0.0580463-0.0311089-0.1016331-0.0723228-0.1229286-0.1178551c0.0328865-0.4432583,0.0648823-0.8725815,0.0947971-1.3014126
		c0.0256557-0.0129528,0.0430889-0.0254154,0.0624046-0.031599c0.2041569-0.0704575,0.4077187-0.1409149,0.6123695-0.2094307
		c0.3840427-0.1274509,0.7796745-0.1801491,1.1801605-0.193985c0.1315479-0.0038261,0.2229767-0.0666313,0.3080673-0.1528873
		c0.1001453-0.0997009,0.0947971-0.234827,0.126791-0.3583736c0.0424957-0.1668224,0.0807323-0.3325653,0.119463-0.4992905
		c0.0304108-0.1313,0.0696373-0.262598,0.0314007-0.3987055c-0.0488338-0.0613327-0.0967789-0.1226645-0.1349144-0.1700611
		c-0.6224728-0.3066597-1.1202316-0.7393179-1.5589542-1.2467527c0.1669102-0.4082251,0.3338203-0.8174305,0.5006313-1.2271271
		c0.3100491-0.0264177,0.6200962-0.030715,0.9311333-0.0109911c0.3467979,0.0209999,0.68577,0.0771313,1.0195904,0.1733971
		c0.1233253,0.0364065,0.292614-0.0018644,0.3956337-0.131299c0.0449715-0.0560322,0.0792446-0.1221724,0.1179752-0.1835041
		c0.0938072-0.1547527,0.1920719-0.3081312,0.280529-0.4662199c0.0585423-0.1063738,0.1518536-0.1978321,0.149477-0.3344307
		c-0.0014858-0.1063738-0.00634-0.2218733-0.0822182-0.2908602c-0.1151028-0.1078453-0.2181225-0.2257004-0.3158913-0.3468924
		c-0.1179771-0.144743-0.2238674-0.300869-0.3298588-0.4571133c-0.0938072-0.1365786-0.1760235-0.2826958-0.2413025-0.43892
		c-0.0526981-0.1245279-0.1229286-0.2405186-0.1867218-0.3613176c0.2940998-0.3507204,0.5784912-0.6879959,0.8716011-1.0353794
		c0.6543674,0.1595411,1.2749577,0.3871269,1.834034,0.7833796c0.0053482,0,0.0222874-0.0048084,0.0358582-0.0009813
		c0.1823635,0.0589762,0.3255005-0.0038271,0.4590282-0.1274729c0.2132702-0.1949854,0.435751-0.379962,0.6635818-0.5792665
		c0.0183258-0.0445509,0.0459614-0.1020555,0.0647831-0.1609344c0.030508-0.0978365,0.030508-0.200285-0.0266476-0.2880344
		c-0.1411552-0.2189093-0.2094059-0.4671812-0.285778-0.7100544c-0.0832081-0.2640705-0.1325378-0.5352263-0.1682968-0.810267
		c-0.0116882-0.0977387-0.0281315-0.1941032-0.0412083-0.2885051c0.3840427-0.2380657,0.7574863-0.4709301,1.1323166-0.7024207
		c0.0493317,0.0196261,0.1035156,0.0315981,0.1456146,0.0603504c0.1426411,0.0953832,0.2848873,0.191257,0.4212875,0.2961588
		c0.2998447,0.2305098,0.5876045,0.4753461,0.8202877,0.7757249c0.0595341,0.0762477,0.1315479,0.1289439,0.2031651,0.188313
		c0.107378,0.0920467,0.2209969,0.0839019,0.3250065,0.0436683c0.2984581-0.1121635,0.5900803-0.2381635,0.8793259-0.3684812
		c0.0919247-0.0403318,0.179491-0.1050005,0.1949425-0.2137294c0.0144634-0.1111822,0.0260525-0.2199111,0.0105991-0.3377666
		c-0.0715179-0.5151873-0.0290222-1.027823,0.0711231-1.5357485c0.0149574-0.0747757,0.0338783-0.1499438,0.0493298-0.2214036
		c0.4474392-0.1115546,0.8793278-0.2189097,1.3136902-0.3262649c0.2795391,0.3425751,0.5446148,0.6842666,0.7414398,1.0742388
		c0.0860806,0.167706,0.1760235,0.3315845,0.2210941,0.516561c0.0105991,0.0445313,0.0449715,0.0824304,0.0686474,0.1216826
		c0.0720139,0.1221728,0.2070274,0.1384625,0.3095512,0.1844859c0.083704-0.0091262,0.1581936-0.0210981,0.2311993-0.026299
		c0.2258492-0.0197244,0.4521942-0.0383692,0.6800232-0.0518332c0.149971-0.0076342,0.2583389-0.0799565,0.3434296-0.195457
		c0.0212975-0.0302444,0.0416031-0.0589767,0.054184-0.0761495c0.0672607-0.6119442,0.3322372-1.140379,0.5900803-1.6708746
		c0.0304108-0.0627055,0.0807304-0.1178551,0.1151047-0.1690798c0.4570465,0.0325799,0.896759,0.064178,1.3518257,0.0967574
		c0.0837021,0.2414999,0.1727562,0.4810171,0.2491264,0.7249908c0.1141167,0.3603368,0.1687927,0.7330379,0.1697845,1.1077995
		c0,0.1331639,0.0763741,0.2141218,0.1469994,0.2941966c0.0449715,0.0512242,0.1112404,0.0957756,0.2036629,0.1025467
		c0.1446228,0.0090079,0.2863731,0.0575047,0.4290123,0.0900841c0.1469994,0.0359163,0.2936058,0.0761499,0.442585,0.1063538
		c0.1654243,0.0325999,0.3119316-0.0441589,0.400486-0.1849566c0.0744934-0.1193271,0.1412544-0.2414999,0.2161446-0.3603363
		c0.2766647-0.4360161,0.6278191-0.8054585,1.0182037-1.1423421c0.413063,0.1653509,0.8275185,0.3302107,1.2405853,0.4954629
		c0.0647812,0.6693511,0.0290222,1.3286924-0.1755295,1.9808702c0.0101051,0.0699472,0.023674,0.1461172,0.0352631,0.223248
		c0.0416031,0.0431771,0.0730057,0.0958734,0.1204529,0.1259999c0.1271896,0.0814486,0.2612152,0.1533785,0.3922653,0.2285471
		c0.1330338,0.0800743,0.2694359,0.1576958,0.4009819,0.2444439c0.1523476,0.0996027,0.3772087,0.0761499,0.5127182-0.0526962
		c0.1465034-0.1365986,0.2921181-0.2755518,0.4536781-0.3915424c0.1818695-0.131299,0.3762169-0.2476821,0.5736389-0.3569021
		c0.1827583-0.1016636,0.3762169-0.1869392,0.566803-0.2798891c0.346302,0.2865419,0.6853714,0.5659409,1.0336533,0.8528757
		c-0.000988,0.0421963,0.0067368,0.0973454-0.0077248,0.1442518C43.6734962,8.69063,43.603363,8.8928776,43.5278816,9.0941448
		c-0.1325378,0.3454199-0.280529,0.6836777-0.4991455,0.9894533c-0.1097565,0.1527901-0.1112404,0.3914242,0.0439796,0.5486498
		c0.2090111,0.2141218,0.3995972,0.4456129,0.6075172,0.6803417c0.0053482,0.0028458,0.0246658,0.0076542,0.0435829,0.0182524
		c0.1881104,0.0972471,0.3651237,0.0809574,0.5334206-0.0455332c0.0251617-0.0201168,0.0575523-0.0321083,0.0865746-0.0421963
		c0.1692886-0.0565233,0.341053-0.1063738,0.5093498-0.1681957c0.2239685-0.0824299,0.4585342-0.1158934,0.6897316-0.1605425
		c0.1392746-0.0262995,0.280529-0.0339537,0.4236679-0.0502434c0.2447662,0.3876171,0.4875565,0.7704258,0.7192497,1.1379261
		c-0.0318947,0.058486-0.0503197,0.1021547-0.07687,0.1409159c-0.1969223,0.2875233-0.407814,0.566412-0.6452522,0.8232203
		c-0.1097565,0.1188364-0.2404099,0.2160845-0.3613586,0.3248129c-0.1015358,0.0948935-0.2312012,0.1562252-0.2780533,0.3096037
		c-0.0338783,0.1125555-0.0619087,0.214612-0.0140648,0.3262854c0.1073761,0.2519999,0.2210922,0.5006638,0.3211403,0.7551165
		c0.095787,0.241991,0.2728004,0.2985144,0.5340157,0.2750616c0.1895943-0.0153084,0.3781967-0.0445719,0.5664063-0.0417061
		c0.3206444,0.0038271,0.6408958,0.0287523,0.956192,0.086257c0.1102524,0.0191355,0.233181,0.0114813,0.3236198,0.0943823
		c0.1063881,0.4273796,0.2113876,0.8500299,0.3187637,1.2803345c-0.1480904,0.1125546-0.2848854,0.2275639-0.4333725,0.3262844
		c-0.2311974,0.1537704-0.4643784,0.3038139-0.7066727,0.43894c-0.1427383,0.0785046-0.3004379,0.1350269-0.455658,0.1839752
		c-0.1682968,0.0522251-0.3216362,0.2285671-0.3100471,0.4049072c0.0203056,0.308033,0.0454674,0.615654,0.0744896,0.9237843
		c0.0154533,0.1677265,0.1761208,0.3210068,0.3492737,0.3497581c0.3017273,0.0512257,0.5934486,0.1313,0.8778419,0.2448368
		c0.2248573,0.0905762,0.4459534,0.1888046,0.6620941,0.297533c0.0808296,0.0412159,0.1630478,0.0737953,0.2293167,0.1576977
		c-0.0275383,0.4250031-0.0556717,0.8600178-0.0846939,1.3104382c-0.6171227,0.2625999-1.2565346,0.4336414-1.9385414,0.4322681
		c-0.047348,0.0262985-0.0952911,0.0588779-0.1479912,0.0799751c-0.0822144,0.0325794-0.1248093,0.1078472-0.1489792,0.1730061
		c-0.0498276,0.1351261-0.0725098,0.280262-0.1040115,0.42206c-0.0386314,0.1720238-0.0744896,0.3435574-0.1155968,0.5151882
		c-0.0381393,0.1642513,0.0372429,0.3233414,0.1828575,0.4125214c0.1209488,0.0733242,0.2461548,0.1379929,0.3637352,0.2136517
		c0.4372368,0.2783966,0.8226662,0.6133175,1.1550026,1.0077057C47.612484,24.6795883,47.4456749,25.0902653,47.2787628,25.4989796"
		/>
	<path class="st1" d="M64.0967026,38.3398018v3.5313377v15.3569946h-3.8544884v-6.5586967h-2.7728958v6.5586967h-3.8224983
		V37.4874344c0-1.2927742,1.0515862-2.3330612,2.3579445-2.3330612h5.7349854c1.2734756,0,2.3569527,1.040287,2.3569527,2.3330612
		V38.3398018z M60.2422142,38.9383011h-2.771904v7.9472084h2.771904V38.9383011z"/>
	<polygon class="st1" points="69.0567703,38.9383011 69.0567703,57.2281342 65.2008896,57.2281342 65.1893005,35.1543732 
		73.0074463,35.1543732 73.0074463,38.9383011 	"/>
	<polygon class="st1" points="84.4942551,53.4126091 84.4942551,57.2276421 74.0443726,57.2276421 74.0443726,35.1538849 
		84.4942551,35.1538849 84.4942551,38.9373207 77.8668671,38.9373207 77.8668671,44.2673798 83.1554108,44.2673798 
		83.1554108,48.0513039 77.8668671,48.0513039 77.8668671,53.4126091 	"/>
	<polygon class="st1" points="96.3544159,35.1543732 96.3544159,57.2276421 92.4985352,57.2276421 92.4985352,48.0513039 
		89.727623,48.0513039 89.727623,57.2276421 85.9051208,57.2276421 85.9051208,35.1543732 89.727623,35.1543732 
		89.727623,44.2683601 92.4985352,44.2683601 92.4985352,35.1543732 	"/>
	<polygon class="st1" points="105.5703506,38.9383011 105.5703506,57.2281342 101.7159576,57.2281342 101.7159576,38.9383011 
		97.7652817,38.9383011 97.7652817,35.1543732 109.5215225,35.1543732 109.5215225,38.9383011 	"/>
	<path class="st1" d="M117.5393677,49.0924759l3.8558884-0.8835526v6.6846771c0,1.2621574-1.0838852,2.3345337-2.3579483,2.3345337
		h-5.7343979c-1.3074493,0-2.3584366-1.0723763-2.3584366-2.3345337V37.4869461
		c0-1.2922859,1.0509872-2.3325729,2.3584366-2.3325729h5.7343979c1.2740631,0,2.3579483,1.040287,2.3579483,2.3325729v4.4781036
		l-3.8558884,0.8835716v-3.9103203h-2.7709122v14.4747963h2.7709122V49.0924759z"/>
	<polygon class="st1" points="130.6106873,38.9383011 130.6106873,57.2281342 126.7562943,57.2281342 126.7562943,38.9383011 
		122.8051224,38.9383011 122.8051224,35.1543732 134.5613708,35.1543732 134.5613708,38.9383011 	"/>
	<path class="st1" d="M146.4340973,43.9837799c0,0.7244225-0.3172607,1.355011-0.8590088,1.7977562
		c0.4769592,0.5050011,0.8590088,1.0723953,0.8590088,1.8916893v7.2203751c0,1.2621574-1.0828857,2.3345337-2.3564453,2.3345337
		h-8.0923462v-22.073761h8.0923462c1.2735596,0,2.3564453,1.040287,2.3564453,2.3330612V43.9837799z M142.5802002,38.9383011
		h-2.7714081v5.3300591h2.7714081V38.9383011z M142.5802002,48.0522881h-2.7714081v5.3608093h2.7714081V48.0522881z"/>
	<path class="st1" d="M155.9374084,35.1543732c1.2749481,0,2.3579407,1.040287,2.3579407,2.3330612v17.4061661
		c0,1.2621574-1.0829926,2.3345337-2.3579407,2.3345337h-5.7344971c-1.3053589,0-2.3578491-1.0723763-2.3578491-2.3345337
		V37.4874344c0-1.2927742,1.0524902-2.3330612,2.3578491-2.3330612H155.9374084z M154.4399719,38.9383011h-2.7729034v14.4747963
		h2.7729034V38.9383011z"/>
	<polygon class="st0" points="88.4980316,63.5878983 88.4980316,81.8777313 84.6422501,81.8777313 84.6422501,63.5878983 
		80.6925583,63.5878983 80.6925583,59.8030891 92.4487076,59.8030891 92.4487076,63.5878983 	"/>
	<polygon class="st0" points="104.3220367,78.0626755 104.3220367,81.877243 93.8726501,81.877243 93.8726501,59.8035774 
		104.3220367,59.8035774 104.3220367,63.5893517 97.6951447,63.5893517 97.6951447,68.9175873 102.9836807,68.9175873 
		102.9836807,72.7009201 97.6951447,72.7009201 97.6951447,78.0626755 	"/>
	<polygon class="st0" points="117.1703796,59.8030891 113.6970596,70.8097458 117.1703796,81.8782196 113.1877136,81.8782196 
		111.4672928,75.949646 109.7144928,81.8782196 105.7333984,81.8782196 109.2047424,70.8097458 105.7333984,59.8030891 
		109.7478714,59.8030891 111.4672928,65.5438461 113.156311,59.8030891 	"/>
	<polygon class="st0" points="129.0305481,59.8030891 129.0305481,81.8782196 125.1766357,81.8782196 125.1766357,72.7019043 
		122.4037476,72.7019043 122.4037476,81.8782196 118.5812454,81.8782196 118.5812454,59.8030891 122.4037476,59.8030891 
		122.4037476,68.9170914 125.1766357,68.9170914 125.1766357,59.8030891 	"/>
	<path class="st0" d="M138.5400848,59.8030891c1.2739563,0,2.3588257,1.0411682,2.3588257,2.3344345v17.4062614
		c0,1.2620621-1.0848694,2.3339462-2.3588257,2.3339462h-5.7344971c-1.306366,0-2.3578491-1.0718842-2.3578491-2.3339462V62.1375237
		c0-1.2932663,1.0514832-2.3344345,2.3578491-2.3344345H138.5400848z M137.0431366,63.5888786h-2.7720032v14.4728203h2.7720032
		V63.5888786z"/>
	<polygon class="st0" points="169.519455,63.5878983 169.519455,81.8777313 165.664566,81.8777313 165.6506042,59.8030891 
		173.4701385,59.8030891 173.4701385,63.5878983 	"/>
	<polygon class="st0" points="178.7474823,59.8030891 178.7474823,68.8542862 181.5508881,59.8030891 185.3433685,59.8030891 
		185.3433685,81.8782196 181.5194855,81.8782196 181.5194855,72.2280273 178.7160797,81.8782196 174.8935852,81.8782196 
		174.8935852,59.8030891 	"/>
	<path class="st0" d="M197.2103577,59.8030891v22.0751305h-3.8558807v-9.1763153h-2.7709045
		c0,0-2.1490326,0.1274567-2.9552612-0.5740662c-0.963028-0.8389206-0.8677368-2.8384399-0.8677368-2.8384399v-9.4863091h3.822998
		v9.1140022h2.7709045v-9.1140022H197.2103577z"/>
	<polygon class="st0" points="209.0768585,78.0626755 209.0768585,81.877243 198.6275635,81.877243 198.6275635,59.8035774 
		209.0768585,59.8035774 209.0768585,63.5893517 202.450058,63.5893517 202.450058,68.9175873 207.7394867,68.9175873 
		207.7394867,72.7009201 202.450058,72.7009201 202.450058,78.0626755 	"/>
	<path class="st0" d="M217.0826111,73.7421875l3.8540039-0.8830795v6.6841888c0,1.2625504-1.0829773,2.3344345-2.3565521,2.3344345
		h-5.7343903c-1.3069611,0-2.3589478-1.0718842-2.3589478-2.3344345V62.1370163
		c0-1.2917786,1.0519867-2.3325729,2.3589478-2.3325729h5.7343903c1.2735748,0,2.3565521,1.0407944,2.3565521,2.3325729v4.4782181
		l-3.8540039,0.8830795v-3.9104156h-2.7728882v14.4747772h2.7728882V73.7421875z"/>
	<polygon class="st0" points="229.7070923,70.8092499 233.2761078,81.8777313 229.4202271,81.8777313 229.3883362,81.7522202 
		226.5220337,72.701416 226.1708679,72.701416 226.1708679,81.8777313 222.3479767,81.8777313 222.3479767,59.8030891 
		226.1708679,59.8030891 226.1708679,68.9170914 226.4577484,68.9170914 229.3883362,59.8030891 233.2761078,59.8030891 	"/>
	<path class="st0" d="M242.167038,59.8030891c1.273468,0,2.3564606,1.0411682,2.3564606,2.3344345v17.4062614
		c0,1.2620621-1.0829926,2.3339462-2.3564606,2.3339462h-5.7359772c-1.3053741,0-2.3569489-1.0718842-2.3569489-2.3339462
		V62.1375237c0-1.2932663,1.0515747-2.3344345,2.3569489-2.3344345H242.167038z M240.6694946,63.5888786h-2.7714081v14.4728203
		h2.7714081V63.5888786z"/>
	<path class="st0" d="M162.1801605,59.8030891c1.2735748,0,2.3569489,1.0411682,2.3569489,2.3344345v17.4062614
		c0,1.2620621-1.083374,2.3339462-2.3569489,2.3339462h-5.7348938c-1.3064575,0-2.3574524-1.0718842-2.3574524-2.3339462V62.1375237
		c0-1.2932663,1.0509949-2.3344345,2.3574524-2.3344345H162.1801605z M160.6827087,63.5888786h-2.7728882v14.4728203h2.7728882
		V63.5888786z"/>
	<path class="st0" d="M144.6658478,59.8030891c-1.3064575,0-2.3584442,1.0416603-2.3584442,2.3344345v19.740696h3.8239899
		v-18.289341h2.7718964v18.289341h3.8548889V59.8030891H144.6658478z"/>
	<path class="st1" d="M64.0967026,94.9902573c0,1.2932892-1.083477,2.3339615-2.3569527,2.3339615h-4.2704315v9.1758118h-3.8224983
		V84.4267807h8.0929298c1.2734756,0,2.3569527,1.0412674,2.3569527,2.3325729V94.9902573z M60.2422142,88.2107086h-2.771904
		v5.3300781h2.771904V88.2107086z"/>
	<path class="st1" d="M75.9568634,87.6117935v3.5318527v15.3563843h-3.8548965v-6.5586624h-2.7718964v6.5586624h-3.823494
		V86.7593536c0-1.2913055,1.0524826-2.3325729,2.3579483-2.3325729h5.7343903c1.2749557,0,2.3579483,1.0412674,2.3579483,2.3325729
		V87.6117935z M72.1019669,88.2107086h-2.7718964v7.9472275h2.7718964V88.2107086z"/>
	<path class="st1" d="M87.8495026,93.2557144c0,0.7264633-0.3192596,1.3569565-0.8605042,1.7982483
		c0.4778519,0.5045853,0.8605042,1.0718842,0.8605042,1.8912735l-0.0314941,7.2227325
		c0,1.2601929-1.0514908,2.3320618-2.358345,2.3320618H79.724678c-1.273468,0-2.3564606-1.0718689-2.3564606-2.3320618v-4.5413971
		l3.854393-0.8835754v3.9420166h2.7710114v-5.3607941h-2.6443176V93.54039h2.6443176v-5.3296814h-2.7710114v3.9099274
		l-3.854393-0.8830795v-4.4782028c0-1.2913055,1.0829926-2.3325729,2.3564606-2.3325729h5.7349854
		c1.3068542,0,2.358345,1.0412674,2.358345,2.3325729L87.8495026,93.2557144z"/>
	<path class="st1" d="M99.7111511,93.2557144c0,0.7254791-0.3192596,1.3555832-0.8610077,1.7982483
		c0.4783478,0.5050812,0.8610077,1.0718842,0.8610077,1.8912735v7.2218475c0,1.2610779-1.0848694,2.3329468-2.3584442,2.3329468
		h-8.0923386V84.4267807h8.0923386c1.2735748,0,2.3584442,1.0412674,2.3584442,2.3325729V93.2557144z M95.8552704,88.2107086
		h-2.7715073v5.3300781h2.7715073V88.2107086z M95.8552704,97.3242188h-2.7715073v5.3612823h2.7715073V97.3242188z"/>
	<polygon class="st1" points="104.975914,84.4267807 104.975914,93.4775848 107.7783203,84.4267807 111.5708084,84.4267807 
		111.5708084,106.5000305 107.7469254,106.5000305 107.7469254,96.8503494 104.9440155,106.5000305 101.1215134,106.5000305 
		101.1215134,84.4267807 	"/>
	<polygon class="st1" points="120.7016525,88.2107086 120.7016525,106.5000305 116.8457718,106.5000305 116.8457718,88.2107086 
		112.8960876,88.2107086 112.8960876,84.4267807 124.6523361,84.4267807 124.6523361,88.2107086 	"/>
	<polygon class="st1" points="129.672821,84.4267807 129.672821,93.4775848 132.4757385,84.4267807 136.2678223,84.4267807 
		136.2678223,106.5000305 132.4443359,106.5000305 132.4443359,96.8503494 129.6409302,106.5000305 125.8179321,106.5000305 
		125.8179321,84.4267807 	"/>
	<polygon class="st0" points="63.3503151,59.8749199 53.6831741,59.8749199 53.6831741,81.877243 57.4939842,81.877243 
		57.4939842,63.6463852 59.556839,63.6463852 59.556839,81.877243 63.3672523,81.877243 63.3672523,59.8749199 	"/>
</g>
</svg>
